<svg xmlns="http://www.w3.org/2000/svg" xmlns:xlink="http://www.w3.org/1999/xlink" width="500" zoomAndPan="magnify" viewBox="0 0 375 374.999991" height="500" preserveAspectRatio="xMidYMid meet" version="1.0"><defs><g/><clipPath id="51995fd0ee"><path d="M 132 225 L 342.699219 225 L 342.699219 299 L 132 299 Z M 132 225 " clip-rule="nonzero"/></clipPath></defs><rect x="-37.5" width="450" fill="#ffffff" y="-37.499999" height="449.999989" fill-opacity="1"/><rect x="-37.5" width="450" fill="#ffffff" y="-37.499999" height="449.999989" fill-opacity="1"/><path fill="#3f5965" d="M 243.855469 318.179688 C 247.609375 317.066406 251.261719 315.785156 254.820312 314.355469 C 193.28125 326.53125 131.457031 290.0625 113.242188 228.722656 C 95.027344 167.386719 126.925781 103.085938 185.136719 79.703125 C 181.375 80.445312 177.613281 81.363281 173.863281 82.476562 C 108.773438 101.804688 71.679688 170.238281 91.007812 235.328125 C 110.335938 300.414062 178.769531 337.507812 243.855469 318.179688 " fill-opacity="1" fill-rule="nonzero"/><path fill="#289db9" d="M 91.53125 286.976562 C 94.796875 289.539062 98.148438 291.90625 101.566406 294.105469 C 53.296875 248.386719 46.898438 172.582031 88.742188 119.214844 C 130.585938 65.851562 205.726562 53.980469 261.640625 89.953125 C 258.691406 87.15625 255.59375 84.46875 252.328125 81.910156 C 195.703125 37.507812 113.800781 47.417969 69.394531 104.046875 C 24.996094 160.675781 34.90625 242.574219 91.53125 286.976562 " fill-opacity="1" fill-rule="nonzero"/><g clip-path="url(#51995fd0ee)"><path fill="#289db9" d="M 212.699219 281.027344 C 179.117188 272 151.496094 251.863281 132.710938 225.644531 C 147.519531 258.34375 176.304688 284.398438 213.675781 294.441406 C 262.492188 307.566406 312.328125 289.707031 342.320312 252.902344 C 307.445312 281.640625 259.660156 293.648438 212.699219 281.027344 " fill-opacity="1" fill-rule="nonzero"/></g><g fill="#3f5965" fill-opacity="1"><g transform="translate(158.643628, 212.862799)"><g><path d="M 32.203125 -11.015625 L 13.546875 -11.015625 L 8.046875 0 L -3.8125 0 L 24.75 -53.46875 L 34.703125 -53.46875 L 44.875 0 L 33.890625 0 Z M 17.953125 -19.9375 L 30.84375 -19.9375 L 27.828125 -39.84375 Z M 17.953125 -19.9375 "/></g></g></g><g fill="#289db9" fill-opacity="1"><g transform="translate(173.365335, 240.38208)"><g><path d="M 0.359375 0 L 4.046875 -17.34375 L 8.109375 -17.34375 L 9.71875 -3.265625 L 17.296875 -17.34375 L 21.5 -17.34375 L 17.8125 0 L 15.328125 0 L 18.40625 -14.515625 L 10.390625 0 L 7.921875 0 L 6.046875 -14.9375 L 2.859375 0 Z M 0.359375 0 "/></g></g></g><g fill="#289db9" fill-opacity="1"><g transform="translate(194.76197, 240.38208)"><g><path d="M 4 0.3125 C 2.894531 0.3125 1.972656 0.0078125 1.234375 -0.59375 C 0.492188 -1.195312 0.125 -2.007812 0.125 -3.03125 C 0.125 -3.90625 0.351562 -4.625 0.8125 -5.1875 C 1.269531 -5.757812 1.867188 -6.21875 2.609375 -6.5625 C 3.347656 -6.914062 4.144531 -7.179688 5 -7.359375 C 5.851562 -7.546875 6.6875 -7.679688 7.5 -7.765625 C 8.3125 -7.847656 9.015625 -7.925781 9.609375 -8 C 9.660156 -8.238281 9.703125 -8.460938 9.734375 -8.671875 C 9.773438 -8.878906 9.796875 -9.078125 9.796875 -9.265625 C 9.796875 -10.640625 9 -11.328125 7.40625 -11.328125 C 6.601562 -11.328125 5.925781 -11.144531 5.375 -10.78125 C 4.820312 -10.425781 4.398438 -9.941406 4.109375 -9.328125 L 2.15625 -9.921875 C 2.601562 -10.890625 3.257812 -11.660156 4.125 -12.234375 C 4.988281 -12.804688 6.046875 -13.09375 7.296875 -13.09375 C 8.804688 -13.09375 9.96875 -12.785156 10.78125 -12.171875 C 11.59375 -11.566406 12 -10.632812 12 -9.375 C 12 -9.082031 11.976562 -8.785156 11.9375 -8.484375 C 11.894531 -8.191406 11.816406 -7.773438 11.703125 -7.234375 C 11.585938 -6.703125 11.414062 -5.914062 11.1875 -4.875 C 10.96875 -3.800781 10.816406 -2.867188 10.734375 -2.078125 C 10.660156 -1.296875 10.613281 -0.601562 10.59375 0 L 8.546875 0 L 8.4375 -1.640625 C 7.863281 -0.992188 7.234375 -0.503906 6.546875 -0.171875 C 5.867188 0.148438 5.019531 0.3125 4 0.3125 Z M 4.703125 -1.484375 C 5.878906 -1.484375 6.882812 -1.875 7.71875 -2.65625 C 8.5625 -3.445312 9.097656 -4.5 9.328125 -5.8125 L 9.40625 -6.265625 C 7.96875 -6.117188 6.738281 -5.953125 5.71875 -5.765625 C 4.695312 -5.585938 3.914062 -5.304688 3.375 -4.921875 C 2.84375 -4.546875 2.578125 -3.988281 2.578125 -3.25 C 2.578125 -2.65625 2.78125 -2.210938 3.1875 -1.921875 C 3.601562 -1.628906 4.109375 -1.484375 4.703125 -1.484375 Z M 4.703125 -1.484375 "/></g></g></g><g fill="#289db9" fill-opacity="1"><g transform="translate(208.290658, 240.38208)"><g><path d="M 0.203125 0 L 2.9375 -12.875 L 4.59375 -12.875 L 4.75 -11.09375 C 5.1875 -11.644531 5.753906 -12.113281 6.453125 -12.5 C 7.148438 -12.894531 8.082031 -13.09375 9.25 -13.09375 C 10.332031 -13.09375 11.179688 -12.796875 11.796875 -12.203125 C 12.410156 -11.617188 12.71875 -10.710938 12.71875 -9.484375 C 12.71875 -8.890625 12.640625 -8.210938 12.484375 -7.453125 L 10.875 0 L 8.671875 0 L 10.203125 -7.25 C 10.359375 -8.007812 10.4375 -8.628906 10.4375 -9.109375 C 10.4375 -9.867188 10.265625 -10.398438 9.921875 -10.703125 C 9.578125 -11.015625 9.03125 -11.171875 8.28125 -11.171875 C 7.65625 -11.171875 7.046875 -11.03125 6.453125 -10.75 C 5.867188 -10.46875 5.347656 -10 4.890625 -9.34375 C 4.429688 -8.6875 4.082031 -7.796875 3.84375 -6.671875 L 2.4375 0 Z M 0.203125 0 "/></g></g></g><g fill="#289db9" fill-opacity="1"><g transform="translate(222.572391, 240.38208)"><g><path d="M 4.671875 4.9375 C 3.578125 4.9375 2.582031 4.675781 1.6875 4.15625 C 0.800781 3.632812 0.203125 2.925781 -0.109375 2.03125 L 2.234375 1.375 C 2.316406 1.789062 2.570312 2.171875 3 2.515625 C 3.4375 2.859375 4.046875 3.03125 4.828125 3.03125 C 5.742188 3.03125 6.46875 2.867188 7 2.546875 C 7.539062 2.234375 7.945312 1.800781 8.21875 1.25 C 8.5 0.695312 8.71875 0.0820312 8.875 -0.59375 L 9.21875 -2.078125 C 8.78125 -1.523438 8.25 -1.109375 7.625 -0.828125 C 7.007812 -0.554688 6.363281 -0.421875 5.6875 -0.421875 C 4.894531 -0.421875 4.125 -0.613281 3.375 -1 C 2.632812 -1.382812 2.023438 -1.972656 1.546875 -2.765625 C 1.066406 -3.566406 0.828125 -4.566406 0.828125 -5.765625 C 0.828125 -7.097656 1.070312 -8.320312 1.5625 -9.4375 C 2.0625 -10.550781 2.765625 -11.445312 3.671875 -12.125 C 4.578125 -12.800781 5.65625 -13.140625 6.90625 -13.140625 C 7.820312 -13.140625 8.660156 -12.9375 9.421875 -12.53125 C 10.179688 -12.125 10.726562 -11.566406 11.0625 -10.859375 L 12.09375 -12.875 L 13.71875 -12.875 C 13.300781 -10.9375 12.890625 -9 12.484375 -7.0625 C 12.078125 -5.125 11.664062 -3.175781 11.25 -1.21875 C 11.15625 -0.84375 11.046875 -0.390625 10.921875 0.140625 C 10.804688 0.679688 10.625 1.226562 10.375 1.78125 C 10.125 2.34375 9.769531 2.859375 9.3125 3.328125 C 8.851562 3.804688 8.242188 4.191406 7.484375 4.484375 C 6.734375 4.785156 5.796875 4.9375 4.671875 4.9375 Z M 6.4375 -2.3125 C 7.25 -2.3125 7.945312 -2.582031 8.53125 -3.125 C 9.125 -3.675781 9.582031 -4.363281 9.90625 -5.1875 C 10.226562 -6.007812 10.390625 -6.84375 10.390625 -7.6875 C 10.390625 -8.84375 10.066406 -9.71875 9.421875 -10.3125 C 8.785156 -10.914062 8.035156 -11.21875 7.171875 -11.21875 C 6.285156 -11.21875 5.539062 -10.957031 4.9375 -10.4375 C 4.34375 -9.914062 3.894531 -9.25 3.59375 -8.4375 C 3.289062 -7.625 3.140625 -6.769531 3.140625 -5.875 C 3.140625 -4.757812 3.441406 -3.882812 4.046875 -3.25 C 4.648438 -2.625 5.445312 -2.3125 6.4375 -2.3125 Z M 6.4375 -2.3125 "/></g></g></g><g fill="#289db9" fill-opacity="1"><g transform="translate(236.983962, 240.38208)"><g><path d="M 4.671875 4.9375 C 3.578125 4.9375 2.582031 4.675781 1.6875 4.15625 C 0.800781 3.632812 0.203125 2.925781 -0.109375 2.03125 L 2.234375 1.375 C 2.316406 1.789062 2.570312 2.171875 3 2.515625 C 3.4375 2.859375 4.046875 3.03125 4.828125 3.03125 C 5.742188 3.03125 6.46875 2.867188 7 2.546875 C 7.539062 2.234375 7.945312 1.800781 8.21875 1.25 C 8.5 0.695312 8.71875 0.0820312 8.875 -0.59375 L 9.21875 -2.078125 C 8.78125 -1.523438 8.25 -1.109375 7.625 -0.828125 C 7.007812 -0.554688 6.363281 -0.421875 5.6875 -0.421875 C 4.894531 -0.421875 4.125 -0.613281 3.375 -1 C 2.632812 -1.382812 2.023438 -1.972656 1.546875 -2.765625 C 1.066406 -3.566406 0.828125 -4.566406 0.828125 -5.765625 C 0.828125 -7.097656 1.070312 -8.320312 1.5625 -9.4375 C 2.0625 -10.550781 2.765625 -11.445312 3.671875 -12.125 C 4.578125 -12.800781 5.65625 -13.140625 6.90625 -13.140625 C 7.820312 -13.140625 8.660156 -12.9375 9.421875 -12.53125 C 10.179688 -12.125 10.726562 -11.566406 11.0625 -10.859375 L 12.09375 -12.875 L 13.71875 -12.875 C 13.300781 -10.9375 12.890625 -9 12.484375 -7.0625 C 12.078125 -5.125 11.664062 -3.175781 11.25 -1.21875 C 11.15625 -0.84375 11.046875 -0.390625 10.921875 0.140625 C 10.804688 0.679688 10.625 1.226562 10.375 1.78125 C 10.125 2.34375 9.769531 2.859375 9.3125 3.328125 C 8.851562 3.804688 8.242188 4.191406 7.484375 4.484375 C 6.734375 4.785156 5.796875 4.9375 4.671875 4.9375 Z M 6.4375 -2.3125 C 7.25 -2.3125 7.945312 -2.582031 8.53125 -3.125 C 9.125 -3.675781 9.582031 -4.363281 9.90625 -5.1875 C 10.226562 -6.007812 10.390625 -6.84375 10.390625 -7.6875 C 10.390625 -8.84375 10.066406 -9.71875 9.421875 -10.3125 C 8.785156 -10.914062 8.035156 -11.21875 7.171875 -11.21875 C 6.285156 -11.21875 5.539062 -10.957031 4.9375 -10.4375 C 4.34375 -9.914062 3.894531 -9.25 3.59375 -8.4375 C 3.289062 -7.625 3.140625 -6.769531 3.140625 -5.875 C 3.140625 -4.757812 3.441406 -3.882812 4.046875 -3.25 C 4.648438 -2.625 5.445312 -2.3125 6.4375 -2.3125 Z M 6.4375 -2.3125 "/></g></g></g><g fill="#289db9" fill-opacity="1"><g transform="translate(251.395533, 240.38208)"><g><path d="M 5.96875 0.3125 C 4.238281 0.3125 2.925781 -0.195312 2.03125 -1.21875 C 1.144531 -2.238281 0.703125 -3.554688 0.703125 -5.171875 C 0.703125 -6.671875 1.003906 -8.019531 1.609375 -9.21875 C 2.210938 -10.414062 3.054688 -11.359375 4.140625 -12.046875 C 5.222656 -12.742188 6.46875 -13.09375 7.875 -13.09375 C 8.75 -13.09375 9.582031 -12.898438 10.375 -12.515625 C 11.164062 -12.140625 11.804688 -11.554688 12.296875 -10.765625 C 12.785156 -9.972656 13.03125 -8.960938 13.03125 -7.734375 C 13.03125 -6.648438 12.859375 -5.617188 12.515625 -4.640625 C 12.171875 -3.671875 11.6875 -2.8125 11.0625 -2.0625 C 10.4375 -1.320312 9.691406 -0.738281 8.828125 -0.3125 C 7.960938 0.101562 7.007812 0.3125 5.96875 0.3125 Z M 6.15625 -1.609375 C 7.15625 -1.609375 7.992188 -1.910156 8.671875 -2.515625 C 9.347656 -3.117188 9.859375 -3.894531 10.203125 -4.84375 C 10.546875 -5.789062 10.71875 -6.78125 10.71875 -7.8125 C 10.71875 -9.082031 10.410156 -9.957031 9.796875 -10.4375 C 9.179688 -10.925781 8.425781 -11.171875 7.53125 -11.171875 C 6.507812 -11.171875 5.660156 -10.875 4.984375 -10.28125 C 4.304688 -9.695312 3.800781 -8.941406 3.46875 -8.015625 C 3.144531 -7.097656 2.984375 -6.140625 2.984375 -5.140625 C 2.984375 -4.085938 3.25 -3.234375 3.78125 -2.578125 C 4.320312 -1.929688 5.113281 -1.609375 6.15625 -1.609375 Z M 6.15625 -1.609375 "/></g></g></g><g fill="#289db9" fill-opacity="1"><g transform="translate(265.599357, 240.38208)"><g><path d="M 0.203125 0 L 2.9375 -12.875 L 4.59375 -12.875 L 4.75 -11.09375 C 5.1875 -11.644531 5.753906 -12.113281 6.453125 -12.5 C 7.148438 -12.894531 8.082031 -13.09375 9.25 -13.09375 C 10.332031 -13.09375 11.179688 -12.796875 11.796875 -12.203125 C 12.410156 -11.617188 12.71875 -10.710938 12.71875 -9.484375 C 12.71875 -8.890625 12.640625 -8.210938 12.484375 -7.453125 L 10.875 0 L 8.671875 0 L 10.203125 -7.25 C 10.359375 -8.007812 10.4375 -8.628906 10.4375 -9.109375 C 10.4375 -9.867188 10.265625 -10.398438 9.921875 -10.703125 C 9.578125 -11.015625 9.03125 -11.171875 8.28125 -11.171875 C 7.65625 -11.171875 7.046875 -11.03125 6.453125 -10.75 C 5.867188 -10.46875 5.347656 -10 4.890625 -9.34375 C 4.429688 -8.6875 4.082031 -7.796875 3.84375 -6.671875 L 2.4375 0 Z M 0.203125 0 "/></g></g></g><g fill="#289db9" fill-opacity="1"><g transform="translate(279.88109, 240.38208)"><g><path d="M 4 0.3125 C 2.894531 0.3125 1.972656 0.0078125 1.234375 -0.59375 C 0.492188 -1.195312 0.125 -2.007812 0.125 -3.03125 C 0.125 -3.90625 0.351562 -4.625 0.8125 -5.1875 C 1.269531 -5.757812 1.867188 -6.21875 2.609375 -6.5625 C 3.347656 -6.914062 4.144531 -7.179688 5 -7.359375 C 5.851562 -7.546875 6.6875 -7.679688 7.5 -7.765625 C 8.3125 -7.847656 9.015625 -7.925781 9.609375 -8 C 9.660156 -8.238281 9.703125 -8.460938 9.734375 -8.671875 C 9.773438 -8.878906 9.796875 -9.078125 9.796875 -9.265625 C 9.796875 -10.640625 9 -11.328125 7.40625 -11.328125 C 6.601562 -11.328125 5.925781 -11.144531 5.375 -10.78125 C 4.820312 -10.425781 4.398438 -9.941406 4.109375 -9.328125 L 2.15625 -9.921875 C 2.601562 -10.890625 3.257812 -11.660156 4.125 -12.234375 C 4.988281 -12.804688 6.046875 -13.09375 7.296875 -13.09375 C 8.804688 -13.09375 9.96875 -12.785156 10.78125 -12.171875 C 11.59375 -11.566406 12 -10.632812 12 -9.375 C 12 -9.082031 11.976562 -8.785156 11.9375 -8.484375 C 11.894531 -8.191406 11.816406 -7.773438 11.703125 -7.234375 C 11.585938 -6.703125 11.414062 -5.914062 11.1875 -4.875 C 10.96875 -3.800781 10.816406 -2.867188 10.734375 -2.078125 C 10.660156 -1.296875 10.613281 -0.601562 10.59375 0 L 8.546875 0 L 8.4375 -1.640625 C 7.863281 -0.992188 7.234375 -0.503906 6.546875 -0.171875 C 5.867188 0.148438 5.019531 0.3125 4 0.3125 Z M 4.703125 -1.484375 C 5.878906 -1.484375 6.882812 -1.875 7.71875 -2.65625 C 8.5625 -3.445312 9.097656 -4.5 9.328125 -5.8125 L 9.40625 -6.265625 C 7.96875 -6.117188 6.738281 -5.953125 5.71875 -5.765625 C 4.695312 -5.585938 3.914062 -5.304688 3.375 -4.921875 C 2.84375 -4.546875 2.578125 -3.988281 2.578125 -3.25 C 2.578125 -2.65625 2.78125 -2.210938 3.1875 -1.921875 C 3.601562 -1.628906 4.109375 -1.484375 4.703125 -1.484375 Z M 4.703125 -1.484375 "/></g></g></g></svg>